<?xml version="1.0" encoding="iso-8859-1"?>
<!-- Generator: Adobe Illustrator 19.0.0, SVG Export Plug-In . SVG Version: 6.00 Build 0)  -->
<svg version="1.1" id="Layer_1" xmlns="http://www.w3.org/2000/svg" xmlns:xlink="http://www.w3.org/1999/xlink" x="0px" y="0px"
	 viewBox="0 0 512 512" style="enable-background:new 0 0 512 512;" xml:space="preserve">
<path style="fill:#314E55;" d="M474.793,351.848c34.035-105.625-26.586-242.1-145.957-326.76c-3.457-2.448-8.181-2.108-11.233,0.853
	c-3.06,2.948-3.578,7.651-1.25,11.198c51.595,78.457,64.854,157.945,37.121,219.897C270.809,201.205,121.3,70.873,119.74,69.515
	c-3.31-2.905-8.276-2.905-11.603,0c-3.328,2.901-4,7.81-1.577,11.5c2.328,3.535,44.104,66.91,89.087,122.013
	c-32.431-23.164-68.225-52.487-131.889-105.716c-3.31-2.776-8.147-2.733-11.423,0.082c-3.276,2.819-4.026,7.595-1.776,11.285
	c63.069,103.518,168.044,199.514,219.785,243.523c-119.259,53.431-255.26-34.492-256.665-35.414
	c-3.517-2.302-8.138-1.828-11.095,1.129s-3.431,7.595-1.138,11.095c26.009,39.552,61.759,68.949,107.432,100.923
	c60.793,42.569,121.294,58.604,172.811,58.604c53.25,0,96.897-17.138,121.319-39.836c0.104-0.129,11.043-11.422,35.276-4.328
	c19.319,5.647,45.931,26.914,55.242,36.517c2.241,2.31,5.595,3.224,8.698,2.362c3.112-0.871,5.509-3.371,6.241-6.517
	c2.345-10.129,3.535-20.578,3.535-31.043C512,410.443,498.827,377.331,474.793,351.848z"/>
<path style="fill:#F28544;" d="M493.776,457.374c-13.448-11.103-33.328-24.914-50.543-29.948
	c-35.216-10.267-52.664,8.698-52.819,8.931c-43.121,40.026-155.846,60.035-271.415-20.888c-30.026-21.017-55.543-40.802-76.5-63.069
	c14.888,6.974,33.448,14.569,54.517,20.914c72.138,21.707,139.044,17.785,193.527-11.371c2.586-1.388,4.319-3.966,4.621-6.888
	c0.293-2.922-0.879-5.802-3.138-7.681c-38.595-32.138-125.19-108.324-191.208-196.272c64.285,53.017,94.181,74.979,141.604,103.436
	c3.845,2.306,8.802,1.366,11.543-2.185c2.733-3.556,2.362-8.591-0.845-11.716c-30.362-29.496-66.233-76.302-92.88-113.238
	c54.621,46.121,139.638,116.048,191.958,149.966c2.078,1.353,4.655,1.75,7.035,1.138c2.396-0.629,4.422-2.241,5.578-4.431
	c30.681-58.306,26.647-131.561-10.19-205.833c90.716,81.423,133.095,194.876,101.75,282.962c-1.155,3.241-0.319,6.854,2.147,9.267
	c23.104,22.621,35.828,52.888,35.828,85.225C494.345,449.599,494.155,453.495,493.776,457.374z"/>
<g>
</g>
<g>
</g>
<g>
</g>
<g>
</g>
<g>
</g>
<g>
</g>
<g>
</g>
<g>
</g>
<g>
</g>
<g>
</g>
<g>
</g>
<g>
</g>
<g>
</g>
<g>
</g>
<g>
</g>
</svg>
